<?xml version="1.0" encoding="UTF-8"?><svg xmlns="http://www.w3.org/2000/svg" xmlns:xlink="http://www.w3.org/1999/xlink" fill-opacity="1" color-rendering="auto" color-interpolation="auto" text-rendering="auto" stroke="black" stroke-linecap="square" width="1491" stroke-miterlimit="10" shape-rendering="auto" stroke-opacity="1" fill="black" stroke-dasharray="none" font-weight="normal" stroke-width="1" height="808" font-family="'Dialog'" font-style="normal" stroke-linejoin="miter" font-size="12px" stroke-dashoffset="0" image-rendering="auto">
  <!--Generated by ySVG 2.6-->
  <defs id="genericDefs"/>
  <g>
    <defs id="defs1">
      <clipPath clipPathUnits="userSpaceOnUse" id="clipPath1">
        <path d="M0 0 L1491 0 L1491 808 L0 808 L0 0 Z"/>
      </clipPath>
      <clipPath clipPathUnits="userSpaceOnUse" id="clipPath2">
        <path d="M-481 -89 L1010 -89 L1010 719 L-481 719 L-481 -89 Z"/>
      </clipPath>
      <clipPath clipPathUnits="userSpaceOnUse" id="clipPath3">
        <path d="M-447.6475 1275.8506 L-447.6475 -215.1494 L360.3525 -215.1494 L360.3525 1275.8506 L-447.6475 1275.8506 Z"/>
      </clipPath>
      <clipPath clipPathUnits="userSpaceOnUse" id="clipPath4">
        <path d="M-471.3252 1450.3506 L-471.3252 -40.6494 L336.6748 -40.6494 L336.6748 1450.3506 L-471.3252 1450.3506 Z"/>
      </clipPath>
    </defs>
    <g fill="rgb(100,80,80)" text-rendering="geometricPrecision" shape-rendering="geometricPrecision" transform="translate(481,89)" stroke="white">
      <rect x="-481" width="1491" height="808" y="-89" clip-path="url(#clipPath2)" stroke="none"/>
    </g>
    <g fill="rgb(240,240,240)" text-rendering="geometricPrecision" shape-rendering="geometricPrecision" transform="matrix(1,0,0,1,481,89)" stroke="rgb(240,240,240)">
      <rect x="528.5" width="323" height="329" y="255" clip-path="url(#clipPath2)" stroke="none"/>
    </g>
    <g text-rendering="geometricPrecision" stroke-miterlimit="1.45" shape-rendering="geometricPrecision" transform="matrix(1,0,0,1,481,89)" stroke-linecap="butt">
      <rect fill="none" x="528.5" width="323" height="329" y="255" clip-path="url(#clipPath2)"/>
      <text x="534.5" xml:space="preserve" y="273.0645" clip-path="url(#clipPath2)" font-family="sans-serif" stroke="none">VMMU</text>
    </g>
    <g fill="rgb(224,224,224)" text-rendering="geometricPrecision" shape-rendering="geometricPrecision" transform="matrix(1,0,0,1,481,89)" stroke="rgb(224,224,224)">
      <rect x="550" width="160" height="40" y="340" clip-path="url(#clipPath2)" stroke="none"/>
    </g>
    <g text-rendering="geometricPrecision" stroke-miterlimit="1.45" shape-rendering="geometricPrecision" transform="matrix(1,0,0,1,481,89)" stroke-linecap="butt">
      <rect fill="none" x="550" width="160" height="40" y="340" clip-path="url(#clipPath2)"/>
      <text x="585.9844" xml:space="preserve" y="364.7139" clip-path="url(#clipPath2)" font-family="sans-serif" stroke="none">Read Data FIFO</text>
    </g>
    <g fill="rgb(224,224,224)" text-rendering="geometricPrecision" shape-rendering="geometricPrecision" transform="matrix(1,0,0,1,481,89)" stroke="rgb(224,224,224)">
      <rect x="550" width="160" height="40" y="280" clip-path="url(#clipPath2)" stroke="none"/>
    </g>
    <g text-rendering="geometricPrecision" stroke-miterlimit="1.45" shape-rendering="geometricPrecision" transform="matrix(1,0,0,1,481,89)" stroke-linecap="butt">
      <rect fill="none" x="550" width="160" height="40" y="280" clip-path="url(#clipPath2)"/>
      <text x="576.6475" xml:space="preserve" y="304.7139" clip-path="url(#clipPath2)" font-family="sans-serif" stroke="none">Read Address FIFO</text>
    </g>
    <g fill="rgb(224,224,224)" text-rendering="geometricPrecision" shape-rendering="geometricPrecision" transform="matrix(1,0,0,1,481,89)" stroke="rgb(224,224,224)">
      <rect x="550" width="160" height="40" y="520" clip-path="url(#clipPath2)" stroke="none"/>
    </g>
    <g text-rendering="geometricPrecision" stroke-miterlimit="1.45" shape-rendering="geometricPrecision" transform="matrix(1,0,0,1,481,89)" stroke-linecap="butt">
      <rect fill="none" x="550" width="160" height="40" y="520" clip-path="url(#clipPath2)"/>
      <text x="586.3301" xml:space="preserve" y="544.7139" clip-path="url(#clipPath2)" font-family="sans-serif" stroke="none">Write Data FIFO</text>
    </g>
    <g fill="rgb(224,224,224)" text-rendering="geometricPrecision" shape-rendering="geometricPrecision" transform="matrix(1,0,0,1,481,89)" stroke="rgb(224,224,224)">
      <rect x="550" width="160" height="40" y="460" clip-path="url(#clipPath2)" stroke="none"/>
    </g>
    <g text-rendering="geometricPrecision" stroke-miterlimit="1.45" shape-rendering="geometricPrecision" transform="matrix(1,0,0,1,481,89)" stroke-linecap="butt">
      <rect fill="none" x="550" width="160" height="40" y="460" clip-path="url(#clipPath2)"/>
      <text x="576.9932" xml:space="preserve" y="484.7139" clip-path="url(#clipPath2)" font-family="sans-serif" stroke="none">Write Address FIFO</text>
    </g>
    <g fill="rgb(224,224,224)" text-rendering="geometricPrecision" shape-rendering="geometricPrecision" transform="matrix(1,0,0,1,481,89)" stroke="rgb(224,224,224)">
      <rect x="740" width="91" height="280" y="280" clip-path="url(#clipPath2)" stroke="none"/>
    </g>
    <g text-rendering="geometricPrecision" stroke-miterlimit="1.45" shape-rendering="geometricPrecision" transform="matrix(1,0,0,1,481,89)" stroke-linecap="butt">
      <rect fill="none" x="740" width="91" height="280" y="280" clip-path="url(#clipPath2)"/>
    </g>
    <g text-rendering="geometricPrecision" stroke-miterlimit="1.45" shape-rendering="geometricPrecision" font-family="sans-serif" transform="matrix(0,1,-1,0,1275.8506,447.6475)" stroke-linecap="butt">
      <text x="2" xml:space="preserve" y="14.0645" clip-path="url(#clipPath3)" stroke="none">Memory Port Interface</text>
    </g>
    <g fill="rgb(240,240,240)" text-rendering="geometricPrecision" shape-rendering="geometricPrecision" transform="matrix(1,0,0,1,481,89)" stroke="rgb(240,240,240)">
      <rect x="34.5" width="351" height="208" y="-74" clip-path="url(#clipPath2)" stroke="none"/>
    </g>
    <g text-rendering="geometricPrecision" stroke-miterlimit="1.45" shape-rendering="geometricPrecision" transform="matrix(1,0,0,1,481,89)" stroke-linecap="butt">
      <rect fill="none" x="34.5" width="351" height="208" y="-74" clip-path="url(#clipPath2)"/>
      <text x="40.5" xml:space="preserve" y="-55.9355" clip-path="url(#clipPath2)" font-family="sans-serif" stroke="none">Video Control</text>
    </g>
    <g fill="rgb(255,204,0)" text-rendering="geometricPrecision" shape-rendering="geometricPrecision" transform="matrix(1,0,0,1,481,89)" stroke="rgb(255,204,0)">
      <rect x="55" width="130" height="30" y="-45" clip-path="url(#clipPath2)" stroke="none"/>
    </g>
    <g text-rendering="geometricPrecision" stroke-miterlimit="1.45" shape-rendering="geometricPrecision" transform="matrix(1,0,0,1,481,89)" stroke-linecap="butt">
      <rect fill="none" x="55" width="130" height="30" y="-45" clip-path="url(#clipPath2)"/>
      <text x="83.9824" xml:space="preserve" y="-25.2861" clip-path="url(#clipPath2)" font-family="sans-serif" stroke="none">Pixel Counter</text>
    </g>
    <g fill="rgb(255,204,0)" text-rendering="geometricPrecision" shape-rendering="geometricPrecision" transform="matrix(1,0,0,1,481,89)" stroke="rgb(255,204,0)">
      <rect x="55" width="130" height="30" y="-15" clip-path="url(#clipPath2)" stroke="none"/>
    </g>
    <g text-rendering="geometricPrecision" stroke-miterlimit="1.45" shape-rendering="geometricPrecision" transform="matrix(1,0,0,1,481,89)" stroke-linecap="butt">
      <rect fill="none" x="55" width="130" height="30" y="-15" clip-path="url(#clipPath2)"/>
      <text x="85.6436" xml:space="preserve" y="4.7139" clip-path="url(#clipPath2)" font-family="sans-serif" stroke="none">Line Counter</text>
    </g>
    <g fill="rgb(238,208,223)" text-rendering="geometricPrecision" shape-rendering="geometricPrecision" transform="matrix(1,0,0,1,481,89)" stroke="rgb(238,208,223)">
      <path d="M235 -30 L248 -45 L352 -45 L365 -30 L352 -15 L248 -15 Z" fill-rule="evenodd" clip-path="url(#clipPath2)" stroke="none"/>
    </g>
    <g text-rendering="geometricPrecision" stroke-miterlimit="1.45" shape-rendering="geometricPrecision" transform="matrix(1,0,0,1,481,89)" stroke-linecap="butt">
      <path fill="none" d="M235 -30 L248 -45 L352 -45 L365 -30 L352 -15 L248 -15 Z" fill-rule="evenodd" clip-path="url(#clipPath2)"/>
      <text x="247.6406" xml:space="preserve" y="-25.2861" clip-path="url(#clipPath2)" font-family="sans-serif" stroke="none">Push Pack Address</text>
    </g>
    <g fill="rgb(240,240,240)" text-rendering="geometricPrecision" shape-rendering="geometricPrecision" transform="matrix(1,0,0,1,481,89)" stroke="rgb(240,240,240)">
      <rect x="-146.5" width="232" height="208" y="196" clip-path="url(#clipPath2)" stroke="none"/>
    </g>
    <g text-rendering="geometricPrecision" stroke-miterlimit="1.45" shape-rendering="geometricPrecision" transform="matrix(1,0,0,1,481,89)" stroke-linecap="butt">
      <rect fill="none" x="-146.5" width="232" height="208" y="196" clip-path="url(#clipPath2)"/>
      <text x="-140.5" xml:space="preserve" y="214.0645" clip-path="url(#clipPath2)" font-family="sans-serif" stroke="none">Video Buffer</text>
    </g>
    <g fill="rgb(255,204,0)" text-rendering="geometricPrecision" shape-rendering="geometricPrecision" transform="matrix(1,0,0,1,481,89)" stroke="rgb(255,204,0)">
      <rect x="55" width="130" height="30" y="75" clip-path="url(#clipPath2)" stroke="none"/>
    </g>
    <g text-rendering="geometricPrecision" stroke-miterlimit="1.45" shape-rendering="geometricPrecision" transform="matrix(1,0,0,1,481,89)" stroke-linecap="butt">
      <rect fill="none" x="55" width="130" height="30" y="75" clip-path="url(#clipPath2)"/>
      <text x="87.9785" xml:space="preserve" y="94.7139" clip-path="url(#clipPath2)" font-family="sans-serif" stroke="none">Blank Video</text>
    </g>
    <g fill="rgb(224,224,224)" text-rendering="geometricPrecision" shape-rendering="geometricPrecision" transform="matrix(1,0,0,1,481,89)" stroke="rgb(224,224,224)">
      <rect x="-110" width="160" height="40" y="340" clip-path="url(#clipPath2)" stroke="none"/>
    </g>
    <g text-rendering="geometricPrecision" stroke-miterlimit="1.45" shape-rendering="geometricPrecision" transform="matrix(1,0,0,1,481,89)" stroke-linecap="butt">
      <rect fill="none" x="-110" width="160" height="40" y="340" clip-path="url(#clipPath2)"/>
      <text x="-84.3545" xml:space="preserve" y="364.7139" clip-path="url(#clipPath2)" font-family="sans-serif" stroke="none">Decompositor 3-to-4</text>
    </g>
    <g fill="rgb(224,224,224)" text-rendering="geometricPrecision" shape-rendering="geometricPrecision" transform="matrix(1,0,0,1,481,89)" stroke="rgb(224,224,224)">
      <rect x="-30" width="40" height="40" y="280" clip-path="url(#clipPath2)" stroke="none"/>
    </g>
    <g text-rendering="geometricPrecision" stroke-miterlimit="1.45" shape-rendering="geometricPrecision" transform="matrix(1,0,0,1,481,89)" stroke-linecap="butt">
      <rect fill="none" x="-30" width="40" height="40" y="280" clip-path="url(#clipPath2)"/>
      <text x="-21.6719" xml:space="preserve" y="304.7139" clip-path="url(#clipPath2)" font-family="sans-serif" stroke="none">Pix2</text>
    </g>
    <g fill="rgb(224,224,224)" text-rendering="geometricPrecision" shape-rendering="geometricPrecision" transform="matrix(1,0,0,1,481,89)" stroke="rgb(224,224,224)">
      <rect x="10" width="40" height="40" y="280" clip-path="url(#clipPath2)" stroke="none"/>
    </g>
    <g text-rendering="geometricPrecision" stroke-miterlimit="1.45" shape-rendering="geometricPrecision" transform="matrix(1,0,0,1,481,89)" stroke-linecap="butt">
      <rect fill="none" x="10" width="40" height="40" y="280" clip-path="url(#clipPath2)"/>
      <text x="18.3281" xml:space="preserve" y="304.7139" clip-path="url(#clipPath2)" font-family="sans-serif" stroke="none">Pix3</text>
    </g>
    <g fill="rgb(224,224,224)" text-rendering="geometricPrecision" shape-rendering="geometricPrecision" transform="matrix(1,0,0,1,481,89)" stroke="rgb(224,224,224)">
      <rect x="-70" width="40" height="40" y="280" clip-path="url(#clipPath2)" stroke="none"/>
    </g>
    <g text-rendering="geometricPrecision" stroke-miterlimit="1.45" shape-rendering="geometricPrecision" transform="matrix(1,0,0,1,481,89)" stroke-linecap="butt">
      <rect fill="none" x="-70" width="40" height="40" y="280" clip-path="url(#clipPath2)"/>
      <text x="-61.6719" xml:space="preserve" y="304.7139" clip-path="url(#clipPath2)" font-family="sans-serif" stroke="none">Pix1</text>
    </g>
    <g fill="rgb(224,224,224)" text-rendering="geometricPrecision" shape-rendering="geometricPrecision" transform="matrix(1,0,0,1,481,89)" stroke="rgb(224,224,224)">
      <rect x="-110" width="40" height="40" y="280" clip-path="url(#clipPath2)" stroke="none"/>
    </g>
    <g text-rendering="geometricPrecision" stroke-miterlimit="1.45" shape-rendering="geometricPrecision" transform="matrix(1,0,0,1,481,89)" stroke-linecap="butt">
      <rect fill="none" x="-110" width="40" height="40" y="280" clip-path="url(#clipPath2)"/>
      <text x="-101.6719" xml:space="preserve" y="304.7139" clip-path="url(#clipPath2)" font-family="sans-serif" stroke="none">Pix0</text>
    </g>
    <g fill="rgb(255,204,0)" text-rendering="geometricPrecision" shape-rendering="geometricPrecision" transform="matrix(1,0,0,1,481,89)" stroke="rgb(255,204,0)">
      <path d="M-80 255 L-54.9999 225 L-4.9994 225 L20.0008 255 Z" fill-rule="evenodd" clip-path="url(#clipPath2)" stroke="none"/>
    </g>
    <g text-rendering="geometricPrecision" stroke-miterlimit="1.45" shape-rendering="geometricPrecision" transform="matrix(1,0,0,1,481,89)" stroke-linecap="butt">
      <path fill="none" d="M-80 255 L-54.9999 225 L-4.9994 225 L20.0008 255 Z" fill-rule="evenodd" clip-path="url(#clipPath2)"/>
      <text x="-56.0068" xml:space="preserve" y="244.7139" clip-path="url(#clipPath2)" font-family="sans-serif" stroke="none">Pixel Mux</text>
    </g>
    <g fill="rgb(255,204,0)" text-rendering="geometricPrecision" shape-rendering="geometricPrecision" transform="matrix(1,0,0,1,481,89)" stroke="rgb(255,204,0)">
      <path d="M-456 165 L-375 165 L-384 180 L-375 195 L-456 195 L-465 180 Z" fill-rule="evenodd" clip-path="url(#clipPath2)" stroke="none"/>
    </g>
    <g text-rendering="geometricPrecision" stroke-miterlimit="1.45" shape-rendering="geometricPrecision" transform="matrix(1,0,0,1,481,89)" stroke-linecap="butt">
      <path fill="none" d="M-456 165 L-375 165 L-384 180 L-375 195 L-456 195 L-465 180 Z" fill-rule="evenodd" clip-path="url(#clipPath2)"/>
      <text x="-446.6836" xml:space="preserve" y="184.7139" clip-path="url(#clipPath2)" font-family="sans-serif" stroke="none">Video Out</text>
    </g>
    <g fill="rgb(240,240,240)" text-rendering="geometricPrecision" shape-rendering="geometricPrecision" transform="matrix(1,0,0,1,481,89)" stroke="rgb(240,240,240)">
      <rect x="34.5" width="351" height="208" y="496" clip-path="url(#clipPath2)" stroke="none"/>
    </g>
    <g text-rendering="geometricPrecision" stroke-miterlimit="1.45" shape-rendering="geometricPrecision" transform="matrix(1,0,0,1,481,89)" stroke-linecap="butt">
      <rect fill="none" x="34.5" width="351" height="208" y="496" clip-path="url(#clipPath2)"/>
      <text x="40.5" xml:space="preserve" y="514.0645" clip-path="url(#clipPath2)" font-family="sans-serif" stroke="none">Video Command</text>
    </g>
    <g fill="rgb(240,240,240)" text-rendering="geometricPrecision" shape-rendering="geometricPrecision" transform="matrix(1,0,0,1,481,89)" stroke="rgb(240,240,240)">
      <rect x="-374" width="295.5" height="208" y="496" clip-path="url(#clipPath2)" stroke="none"/>
    </g>
    <g text-rendering="geometricPrecision" stroke-miterlimit="1.45" shape-rendering="geometricPrecision" transform="matrix(1,0,0,1,481,89)" stroke-linecap="butt">
      <rect fill="none" x="-374" width="295.5" height="208" y="496" clip-path="url(#clipPath2)"/>
      <text x="-368" xml:space="preserve" y="514.0645" clip-path="url(#clipPath2)" font-family="sans-serif" stroke="none">SPI</text>
    </g>
    <g fill="rgb(255,204,0)" text-rendering="geometricPrecision" shape-rendering="geometricPrecision" transform="matrix(1,0,0,1,481,89)" stroke="rgb(255,204,0)">
      <path d="M-465 315 L-384 315 L-375 330 L-384 345 L-465 345 L-456 330 Z" fill-rule="evenodd" clip-path="url(#clipPath2)" stroke="none"/>
    </g>
    <g text-rendering="geometricPrecision" stroke-miterlimit="1.45" shape-rendering="geometricPrecision" transform="matrix(1,0,0,1,481,89)" stroke-linecap="butt">
      <path fill="none" d="M-465 315 L-384 315 L-375 330 L-384 345 L-465 345 L-456 330 Z" fill-rule="evenodd" clip-path="url(#clipPath2)"/>
      <text x="-433.0049" xml:space="preserve" y="334.7139" clip-path="url(#clipPath2)" font-family="sans-serif" stroke="none">CSel</text>
    </g>
    <g fill="rgb(255,204,0)" text-rendering="geometricPrecision" shape-rendering="geometricPrecision" transform="matrix(1,0,0,1,481,89)" stroke="rgb(255,204,0)">
      <path d="M-465 345 L-384 345 L-375 360 L-384 375 L-465 375 L-456 360 Z" fill-rule="evenodd" clip-path="url(#clipPath2)" stroke="none"/>
    </g>
    <g text-rendering="geometricPrecision" stroke-miterlimit="1.45" shape-rendering="geometricPrecision" transform="matrix(1,0,0,1,481,89)" stroke-linecap="butt">
      <path fill="none" d="M-465 345 L-384 345 L-375 360 L-384 375 L-465 375 L-456 360 Z" fill-rule="evenodd" clip-path="url(#clipPath2)"/>
      <text x="-431.335" xml:space="preserve" y="364.7139" clip-path="url(#clipPath2)" font-family="sans-serif" stroke="none">Sclk</text>
    </g>
    <g fill="rgb(255,204,0)" text-rendering="geometricPrecision" shape-rendering="geometricPrecision" transform="matrix(1,0,0,1,481,89)" stroke="rgb(255,204,0)">
      <path d="M-465 285 L-384 285 L-375 300 L-384 315 L-465 315 L-456 300 Z" fill-rule="evenodd" clip-path="url(#clipPath2)" stroke="none"/>
    </g>
    <g text-rendering="geometricPrecision" stroke-miterlimit="1.45" shape-rendering="geometricPrecision" transform="matrix(1,0,0,1,481,89)" stroke-linecap="butt">
      <path fill="none" d="M-465 285 L-384 285 L-375 300 L-384 315 L-465 315 L-456 300 Z" fill-rule="evenodd" clip-path="url(#clipPath2)"/>
      <text x="-432.668" xml:space="preserve" y="304.7139" clip-path="url(#clipPath2)" font-family="sans-serif" stroke="none">Mosi</text>
    </g>
    <g fill="rgb(224,224,224)" text-rendering="geometricPrecision" shape-rendering="geometricPrecision" transform="matrix(1,0,0,1,481,89)" stroke="rgb(224,224,224)">
      <rect x="-260" width="160" height="40" y="580" clip-path="url(#clipPath2)" stroke="none"/>
    </g>
    <g text-rendering="geometricPrecision" stroke-miterlimit="1.45" shape-rendering="geometricPrecision" transform="matrix(1,0,0,1,481,89)" stroke-linecap="butt">
      <rect fill="none" x="-260" width="160" height="40" y="580" clip-path="url(#clipPath2)"/>
      <text x="-216.0146" xml:space="preserve" y="604.7139" clip-path="url(#clipPath2)" font-family="sans-serif" stroke="none">Shift Register</text>
    </g>
    <g fill="rgb(255,204,0)" text-rendering="geometricPrecision" shape-rendering="geometricPrecision" transform="matrix(1,0,0,1,481,89)" stroke="rgb(255,204,0)">
      <path d="M-330.0001 525.0001 L-270.0001 525.0001 L-285.0001 555.0001 L-315.0001 555.0001 Z" fill-rule="evenodd" clip-path="url(#clipPath2)" stroke="none"/>
    </g>
    <g text-rendering="geometricPrecision" stroke-miterlimit="1.45" shape-rendering="geometricPrecision" transform="matrix(1,0,0,1,481,89)" stroke-linecap="butt">
      <path fill="none" d="M-330.0001 525.0001 L-270.0001 525.0001 L-285.0001 555.0001 L-315.0001 555.0001 Z" fill-rule="evenodd" clip-path="url(#clipPath2)"/>
    </g>
    <g fill="rgb(238,208,223)" text-rendering="geometricPrecision" shape-rendering="geometricPrecision" transform="matrix(1,0,0,1,481,89)" stroke="rgb(238,208,223)">
      <path d="M55 660 L68 645 L172 645 L185 660 L172 675 L68 675 Z" fill-rule="evenodd" clip-path="url(#clipPath2)" stroke="none"/>
    </g>
    <g text-rendering="geometricPrecision" stroke-miterlimit="1.45" shape-rendering="geometricPrecision" transform="matrix(1,0,0,1,481,89)" stroke-linecap="butt">
      <path fill="none" d="M55 660 L68 645 L172 645 L185 660 L172 675 L68 675 Z" fill-rule="evenodd" clip-path="url(#clipPath2)"/>
      <text x="73.9805" xml:space="preserve" y="664.7139" clip-path="url(#clipPath2)" font-family="sans-serif" stroke="none">Select Command</text>
    </g>
    <g fill="rgb(255,204,0)" text-rendering="geometricPrecision" shape-rendering="geometricPrecision" transform="matrix(1,0,0,1,481,89)" stroke="rgb(255,204,0)">
      <rect x="145" width="130" height="30" y="525" clip-path="url(#clipPath2)" stroke="none"/>
    </g>
    <g text-rendering="geometricPrecision" stroke-miterlimit="1.45" shape-rendering="geometricPrecision" transform="matrix(1,0,0,1,481,89)" stroke-linecap="butt">
      <rect fill="none" x="145" width="130" height="30" y="525" clip-path="url(#clipPath2)"/>
      <text x="166.3154" xml:space="preserve" y="544.7139" clip-path="url(#clipPath2)" font-family="sans-serif" stroke="none">Current Address</text>
    </g>
    <g fill="rgb(238,208,223)" text-rendering="geometricPrecision" shape-rendering="geometricPrecision" transform="matrix(1,0,0,1,481,89)" stroke="rgb(238,208,223)">
      <path d="M235 660.0004 L248 645.0004 L352 645.0004 L365 660.0004 L352 675.0004 L248 675.0004 Z" fill-rule="evenodd" clip-path="url(#clipPath2)" stroke="none"/>
    </g>
    <g text-rendering="geometricPrecision" stroke-miterlimit="1.45" shape-rendering="geometricPrecision" transform="matrix(1,0,0,1,481,89)" stroke-linecap="butt">
      <path fill="none" d="M235 660.0004 L248 645.0004 L352 645.0004 L365 660.0004 L352 675.0004 L248 675.0004 Z" fill-rule="evenodd" clip-path="url(#clipPath2)"/>
      <text x="272.6514" xml:space="preserve" y="664.7139" clip-path="url(#clipPath2)" font-family="sans-serif" stroke="none">Push Byte</text>
    </g>
    <g fill="rgb(255,204,0)" text-rendering="geometricPrecision" shape-rendering="geometricPrecision" transform="matrix(1,0,0,1,481,89)" stroke="rgb(255,204,0)">
      <rect x="-245" width="130" height="30" y="645" clip-path="url(#clipPath2)" stroke="none"/>
    </g>
    <g text-rendering="geometricPrecision" stroke-miterlimit="1.45" shape-rendering="geometricPrecision" transform="matrix(1,0,0,1,481,89)" stroke-linecap="butt">
      <rect fill="none" x="-245" width="130" height="30" y="645" clip-path="url(#clipPath2)"/>
      <text x="-218.0215" xml:space="preserve" y="664.7139" clip-path="url(#clipPath2)" font-family="sans-serif" stroke="none">Pulse Counter</text>
    </g>
    <g fill="rgb(238,208,223)" text-rendering="geometricPrecision" shape-rendering="geometricPrecision" transform="matrix(1,0,0,1,481,89)" stroke="rgb(238,208,223)">
      <path d="M55 599.9999 L68 584.9999 L172 584.9999 L185 599.9999 L172 614.9999 L68 614.9999 Z" fill-rule="evenodd" clip-path="url(#clipPath2)" stroke="none"/>
    </g>
    <g text-rendering="geometricPrecision" stroke-miterlimit="1.45" shape-rendering="geometricPrecision" transform="matrix(1,0,0,1,481,89)" stroke-linecap="butt">
      <path fill="none" d="M55 599.9999 L68 584.9999 L172 584.9999 L185 599.9999 L172 614.9999 L68 614.9999 Z" fill-rule="evenodd" clip-path="url(#clipPath2)"/>
      <text x="87.3164" xml:space="preserve" y="604.7139" clip-path="url(#clipPath2)" font-family="sans-serif" stroke="none">Set Address</text>
    </g>
    <g fill="rgb(238,208,223)" text-rendering="geometricPrecision" shape-rendering="geometricPrecision" transform="matrix(1,0,0,1,481,89)" stroke="rgb(238,208,223)">
      <path d="M235.0001 599.9998 L248.0001 584.9998 L352.0001 584.9998 L365.0001 599.9998 L352.0001 614.9998 L248.0001 614.9998 Z" fill-rule="evenodd" clip-path="url(#clipPath2)" stroke="none"/>
    </g>
    <g text-rendering="geometricPrecision" stroke-miterlimit="1.45" shape-rendering="geometricPrecision" transform="matrix(1,0,0,1,481,89)" stroke-linecap="butt">
      <path fill="none" d="M235.0001 599.9998 L248.0001 584.9998 L352.0001 584.9998 L365.0001 599.9998 L352.0001 614.9998 L248.0001 614.9998 Z" fill-rule="evenodd" clip-path="url(#clipPath2)"/>
      <text x="249.6445" xml:space="preserve" y="604.7139" clip-path="url(#clipPath2)" font-family="sans-serif" stroke="none">Increment Address</text>
    </g>
    <g fill="rgb(224,224,224)" text-rendering="geometricPrecision" shape-rendering="geometricPrecision" transform="matrix(1,0,0,1,481,89)" stroke="rgb(224,224,224)">
      <rect x="925" width="70" height="182.5" y="328.75" clip-path="url(#clipPath2)" stroke="none"/>
    </g>
    <g text-rendering="geometricPrecision" stroke-miterlimit="1.45" shape-rendering="geometricPrecision" transform="matrix(1,0,0,1,481,89)" stroke-linecap="butt">
      <rect fill="none" x="925" width="70" height="182.5" y="328.75" clip-path="url(#clipPath2)"/>
    </g>
    <g text-rendering="geometricPrecision" stroke-miterlimit="1.45" shape-rendering="geometricPrecision" font-family="sans-serif" transform="matrix(0,1,-1,0,1450.3506,471.3252)" stroke-linecap="butt">
      <text x="2" xml:space="preserve" y="14.0645" clip-path="url(#clipPath4)" stroke="none">Memory Chip</text>
    </g>
    <g text-rendering="geometricPrecision" stroke-miterlimit="1.45" shape-rendering="geometricPrecision" transform="matrix(1,0,0,1,481,89)" stroke-linecap="butt">
      <path fill="none" d="M710 300 L731.9975 300" clip-path="url(#clipPath2)"/>
      <path d="M739.9975 300 L727.9975 295 L730.9975 300 L727.9975 305 Z" clip-path="url(#clipPath2)" stroke="none"/>
      <path fill="none" d="M710 480 L732.0269 480" clip-path="url(#clipPath2)"/>
      <path d="M740.0269 480 L728.0269 475 L731.0269 480 L728.0269 485 Z" clip-path="url(#clipPath2)" stroke="none"/>
      <path fill="none" d="M710 540 L732.0126 540" clip-path="url(#clipPath2)"/>
      <path d="M740.0126 540 L728.0126 535 L731.0126 540 L728.0126 545 Z" clip-path="url(#clipPath2)" stroke="none"/>
      <path fill="none" d="M739.9684 360 L718 360" clip-path="url(#clipPath2)"/>
      <path d="M710 360 L722 365 L719 360 L722 355 Z" clip-path="url(#clipPath2)" stroke="none"/>
      <path fill="none" d="M185 -30 L227.0037 -30" clip-path="url(#clipPath2)"/>
      <path d="M235.0037 -30 L223.0037 -35 L226.0037 -30 L223.0037 -25 Z" clip-path="url(#clipPath2)" stroke="none"/>
      <path fill="none" d="M365.0024 -30 L450 -30 L450 300 L542 300" clip-path="url(#clipPath2)"/>
      <path d="M550 300 L538 295 L541 300 L538 305 Z" clip-path="url(#clipPath2)" stroke="none"/>
      <path fill="none" d="M120 15 L120 67" clip-path="url(#clipPath2)"/>
      <path d="M120 75 L125 63 L120 66 L115 63 Z" clip-path="url(#clipPath2)" stroke="none"/>
      <path fill="none" d="M550 360 L58 360" clip-path="url(#clipPath2)"/>
      <path d="M50 360 L62 365 L59 360 L62 355 Z" clip-path="url(#clipPath2)" stroke="none"/>
      <path fill="none" d="M-10 339.9888 L-10 328" clip-path="url(#clipPath2)"/>
      <path d="M-10 320 L-15 332 L-10 329 L-5 332 Z" clip-path="url(#clipPath2)" stroke="none"/>
      <path fill="none" d="M30 339.9935 L30 328" clip-path="url(#clipPath2)"/>
      <path d="M30 320 L25 332 L30 329 L35 332 Z" clip-path="url(#clipPath2)" stroke="none"/>
      <path fill="none" d="M-50 339.9765 L-50 328" clip-path="url(#clipPath2)"/>
      <path d="M-50 320 L-55 332 L-50 329 L-45 332 Z" clip-path="url(#clipPath2)" stroke="none"/>
      <path fill="none" d="M-90 339.9894 L-90 328" clip-path="url(#clipPath2)"/>
      <path d="M-90 320 L-95 332 L-90 329 L-85 332 Z" clip-path="url(#clipPath2)" stroke="none"/>
      <path fill="none" d="M29.9707 279.9805 L-0.8253 259.4498" clip-path="url(#clipPath2)"/>
      <path d="M-7.4817 255.0122 L-0.2706 265.8289 L0.0067 260.0045 L5.2764 257.5084 Z" clip-path="url(#clipPath2)" stroke="none"/>
      <path fill="none" d="M-10.0195 279.9609 L-18.9101 262.1798" clip-path="url(#clipPath2)"/>
      <path d="M-22.4878 255.0244 L-21.5934 267.9936 L-18.4629 263.0742 L-12.6491 263.5214 Z" clip-path="url(#clipPath2)" stroke="none"/>
      <path fill="none" d="M-49.9805 279.9609 L-41.0899 262.1798" clip-path="url(#clipPath2)"/>
      <path d="M-37.5122 255.0244 L-47.3509 263.5214 L-41.5371 263.0742 L-38.4066 267.9936 Z" clip-path="url(#clipPath2)" stroke="none"/>
      <path fill="none" d="M-89.9707 279.9805 L-59.1747 259.4498" clip-path="url(#clipPath2)"/>
      <path d="M-52.5183 255.0122 L-65.2764 257.5084 L-60.0067 260.0045 L-59.7294 265.8289 Z" clip-path="url(#clipPath2)" stroke="none"/>
      <path fill="none" d="M120 105 L120 240 L15.5366 240" clip-path="url(#clipPath2)"/>
      <path d="M7.5366 240 L19.5366 245 L16.5366 240 L19.5366 235 Z" clip-path="url(#clipPath2)" stroke="none"/>
      <path fill="none" d="M-30 224.9707 L-30 180 L-375.9612 180" clip-path="url(#clipPath2)"/>
      <path d="M-383.9612 180 L-371.9612 185 L-374.9612 180 L-371.9612 175 Z" clip-path="url(#clipPath2)" stroke="none"/>
      <path fill="none" d="M-375.0439 300 L-240 300 L-240 571.9853" clip-path="url(#clipPath2)"/>
      <path d="M-240 579.9853 L-235 567.9853 L-240 570.9853 L-245 567.9853 Z" clip-path="url(#clipPath2)" stroke="none"/>
      <path fill="none" d="M-375.0236 360 L-315.1488 360 L-315.1488 516.9764" clip-path="url(#clipPath2)"/>
      <path d="M-315.1488 524.9764 L-310.1488 512.9764 L-315.1488 515.9764 L-320.1488 512.9764 Z" clip-path="url(#clipPath2)" stroke="none"/>
      <path fill="none" d="M-375.0182 330 L-284.0256 330 L-284.0256 516.9547" clip-path="url(#clipPath2)"/>
      <path d="M-284.0256 524.9547 L-279.0256 512.9547 L-284.0256 515.9547 L-289.0256 512.9547 Z" clip-path="url(#clipPath2)" stroke="none"/>
      <path fill="none" d="M-300 555.0293 L-300 600 L-267.9658 600" clip-path="url(#clipPath2)"/>
      <path d="M-259.9658 600 L-271.9658 595 L-268.9658 600 L-271.9658 605 Z" clip-path="url(#clipPath2)" stroke="none"/>
      <path fill="none" d="M-100 600 L-30 600 L-30 660 L46.9976 660" clip-path="url(#clipPath2)"/>
      <path d="M54.9976 660 L42.9976 655 L45.9976 660 L42.9976 665 Z" clip-path="url(#clipPath2)" stroke="none"/>
      <path fill="none" d="M275 540 L420 540 L420 480 L542 480" clip-path="url(#clipPath2)"/>
      <path d="M550 480 L538 475 L541 480 L538 485 Z" clip-path="url(#clipPath2)" stroke="none"/>
      <path fill="none" d="M184.9951 660 L227.0009 660" clip-path="url(#clipPath2)"/>
      <path d="M235.0009 660 L223.0009 655 L226.0009 660 L223.0009 665 Z" clip-path="url(#clipPath2)" stroke="none"/>
      <path fill="none" d="M364.9951 660 L480 660 L480 540 L542 540" clip-path="url(#clipPath2)"/>
      <path d="M550 540 L538 535 L541 540 L538 545 Z" clip-path="url(#clipPath2)" stroke="none"/>
      <path fill="none" d="M-300 555.0293 L-300 660 L-253 660" clip-path="url(#clipPath2)"/>
      <path d="M-245 660 L-257 655 L-254 660 L-257 665 Z" clip-path="url(#clipPath2)" stroke="none"/>
      <path fill="none" d="M120 644.9707 L120 622.9756" clip-path="url(#clipPath2)"/>
      <path d="M120 614.9756 L115 626.9756 L120 623.9756 L125 626.9756 Z" clip-path="url(#clipPath2)" stroke="none"/>
      <path fill="none" d="M142.522 584.9854 L180.8436 559.4376" clip-path="url(#clipPath2)"/>
      <path d="M187.5 555 L174.7419 557.4962 L180.0115 559.9923 L180.2889 565.8167 Z" clip-path="url(#clipPath2)" stroke="none"/>
      <path fill="none" d="M300 645.0293 L300 622.9951" clip-path="url(#clipPath2)"/>
      <path d="M300 614.9951 L295 626.9951 L300 623.9951 L305 626.9951 Z" clip-path="url(#clipPath2)" stroke="none"/>
      <path fill="none" d="M277.478 584.9854 L239.1564 559.4376" clip-path="url(#clipPath2)"/>
      <path d="M232.5 555 L239.7111 565.8167 L239.9885 559.9923 L245.2581 557.4962 Z" clip-path="url(#clipPath2)" stroke="none"/>
      <path fill="none" d="M839 420 L917 420" clip-path="url(#clipPath2)"/>
      <path d="M831 420 L843 425 L840 420 L843 415 Z" clip-path="url(#clipPath2)" stroke="none"/>
      <path d="M925 420 L913 415 L916 420 L913 425 Z" clip-path="url(#clipPath2)" stroke="none"/>
    </g>
  </g>
</svg>
